<svg height='300px' width='300px'  fill="#000000" xmlns="http://www.w3.org/2000/svg" xmlns:xlink="http://www.w3.org/1999/xlink" version="1.1" x="0px" y="0px" viewBox="0 0 512 512" style="enable-background:new 0 0 512 512;" xml:space="preserve"><g><g><g><path d="M217.502,333.555c-2.716,0-5.27-1.058-7.191-2.979l-94.301-94.301c-5.354-5.354-8.303-12.473-8.303-20.044     c0-7.571,2.949-14.69,8.303-20.043c5.354-5.354,12.472-8.302,20.043-8.302c7.572,0,14.69,2.948,20.044,8.302l94.302,94.303     c3.963,3.963,3.964,10.414,0,14.38l-25.708,25.706C222.773,332.497,220.219,333.555,217.502,333.555z M136.054,197.333     c-5.047,0-9.793,1.965-13.363,5.535c-3.569,3.569-5.535,8.314-5.535,13.362s1.966,9.793,5.536,13.363l94.302,94.302     c0.175,0.175,0.373,0.212,0.509,0.212s0.334-0.037,0.508-0.212l25.708-25.706c0.281-0.28,0.281-0.738,0-1.019l-94.302-94.302     C145.848,199.298,141.102,197.333,136.054,197.333z"></path></g><g><path d="M331.722,415.031c-1.209,0-2.419-0.462-3.341-1.385l-96.72-96.719c-1.845-1.845-1.845-4.837,0-6.681     c1.845-1.846,4.836-1.846,6.682,0l96.719,96.719c1.846,1.845,1.846,4.836,0,6.681     C334.14,414.569,332.931,415.031,331.722,415.031z"></path></g><g><path d="M307.541,439.211c-1.209,0-2.418-0.461-3.34-1.384l-48.318-48.317c-10.987-10.988-12.396-27.458-3.14-36.714     l19.877-19.877c4.618-4.618,11.082-6.757,18.197-6.008c6.747,0.705,13.322,3.954,18.516,9.148l48.318,48.318     c1.846,1.844,1.846,4.836,0,6.681c-1.844,1.845-4.837,1.845-6.681,0l-48.318-48.318c-7.304-7.304-17.78-8.711-23.352-3.141     l-19.877,19.877c-5.571,5.572-4.163,16.048,3.142,23.353l48.316,48.317c1.845,1.845,1.845,4.836,0,6.681     C309.96,438.75,308.75,439.211,307.541,439.211z"></path></g><g><path d="M398.217,337.912c-8.112,0-15.739-3.158-21.476-8.895l-96.72-96.72c-1.846-1.845-1.846-4.836,0-6.682l1.286-1.287     c-2.692,0.262-5.41,0.395-8.146,0.395c-0.002,0-0.003,0-0.005,0c-23.503-0.001-46.891-9.91-64.165-27.185     c-34.341-34.341-36.375-88.185-4.535-120.025c1.846-1.844,4.836-1.844,6.682,0l208.553,208.553     c5.736,5.735,8.896,13.363,8.896,21.476s-3.16,15.739-8.896,21.475C413.956,334.754,406.329,337.912,398.217,337.912z      M290.043,228.957l93.379,93.379c3.952,3.951,9.206,6.128,14.795,6.128s10.843-2.177,14.795-6.128     c3.951-3.951,6.128-9.206,6.128-14.794c0-5.589-2.177-10.843-6.128-14.795L207.917,87.653     c-24.726,28.485-21.678,73.769,7.758,103.204c15.516,15.517,36.467,24.416,57.483,24.417c0.002,0,0.004,0,0.006,0     c7.238,0,14.329-1.039,21.076-3.089c2.07-0.627,4.311,0.231,5.425,2.091c1.114,1.858,0.821,4.237-0.712,5.77L290.043,228.957z"></path></g><g><path d="M256,473.323c-58.049,0-112.624-22.606-153.67-63.653C61.283,368.624,38.678,314.05,38.678,256     c0-58.049,22.605-112.624,63.652-153.671C143.376,61.283,197.951,38.677,256,38.677c58.05,0,112.624,22.605,153.67,63.652     c41.047,41.047,63.653,95.622,63.653,153.671c0,58.05-22.606,112.624-63.653,153.67C368.624,450.717,314.05,473.323,256,473.323z      M256,48.126c-55.525,0-107.727,21.623-146.989,60.885S48.126,200.475,48.126,256s21.623,107.727,60.885,146.989     c39.262,39.262,91.463,60.885,146.989,60.885s107.727-21.623,146.989-60.885c39.262-39.263,60.885-91.464,60.885-146.989     s-21.623-107.727-60.885-146.989C363.727,69.749,311.525,48.126,256,48.126z"></path></g><g><path d="M224.612,423.089c-0.296,0-0.596-0.027-0.898-0.086c-33.404-6.427-63.827-22.589-87.978-46.739     c-1.845-1.845-1.845-4.836,0-6.681c1.846-1.845,4.836-1.845,6.682,0c22.81,22.809,51.539,38.072,83.082,44.142     c2.562,0.492,4.239,2.97,3.747,5.531C228.811,421.517,226.832,423.089,224.612,423.089z"></path></g><g><path d="M415.017,215.288c-2.057,0-3.949-1.355-4.54-3.432c-7.435-26.108-21.576-50.12-40.894-69.438     c-29.904-29.904-69.66-46.61-111.941-47.039c-2.609-0.026-4.703-2.163-4.676-4.772c0.026-2.592,2.136-4.676,4.723-4.676     c0.017,0,0.032,0,0.049,0c44.77,0.454,86.863,18.142,118.526,49.806c20.453,20.453,35.426,45.879,43.3,73.532     c0.715,2.509-0.74,5.123-3.25,5.837C415.882,215.229,415.446,215.288,415.017,215.288z"></path></g></g></g></svg>