<svg height='300px' width='300px'  fill="#000000" xmlns="http://www.w3.org/2000/svg" xmlns:xlink="http://www.w3.org/1999/xlink" version="1.1" x="0px" y="0px" viewBox="0 0 512 512" style="enable-background:new 0 0 512 512;" xml:space="preserve"><g><g><g><path d="M218.246,336.691c-3.902,0-7.57-1.521-10.329-4.28l-92.48-92.48c-6.126-6.126-9.5-14.271-9.5-22.934     c0-8.664,3.374-16.808,9.5-22.933s14.27-9.499,22.933-9.499c8.663,0,16.807,3.374,22.933,9.499l92.481,92.482     c5.693,5.693,5.694,14.959,0.001,20.653l-25.213,25.212C225.816,335.171,222.148,336.691,218.246,336.691z M138.37,203.098     c-3.713,0-7.203,1.446-9.829,4.071c-2.625,2.625-4.071,6.116-4.071,9.828c0,3.713,1.446,7.204,4.071,9.829l89.705,89.705     l19.657-19.657l-89.705-89.705C145.573,204.544,142.083,203.098,138.37,203.098z"></path></g><g><path d="M330.26,416.594c-2.372,0-4.742-0.904-6.553-2.714l-94.853-94.852c-3.619-3.619-3.619-9.486,0-13.105     c3.619-3.618,9.486-3.618,13.105,0l94.854,94.853c3.618,3.618,3.618,9.486,0,13.104     C335.003,415.689,332.632,416.594,330.26,416.594z"></path></g><g><path d="M306.546,440.308c-2.371,0-4.742-0.905-6.552-2.714l-47.385-47.385c-12.582-12.583-13.963-31.675-3.08-42.559     l19.493-19.493c10.886-10.883,29.974-9.501,42.558,3.08l47.386,47.385c3.619,3.619,3.619,9.486,0,13.105     c-3.62,3.618-9.485,3.618-13.105,0l-47.385-47.386c-5.265-5.266-12.753-6.675-16.348-3.079l-19.493,19.493     c-3.596,3.596-2.187,11.082,3.08,16.349l47.384,47.384c3.619,3.619,3.619,9.486,0,13.105     C311.289,439.402,308.918,440.308,306.546,440.308z"></path></g><g><path d="M395.472,340.965c-9.193,0-17.837-3.581-24.338-10.081l-94.853-94.853c-1.688-1.688-2.588-3.864-2.701-6.074     c-0.253,0.002-0.512-0.019-0.755,0.003c-24.269-0.001-48.398-10.213-66.201-28.018c-17.091-17.091-27.018-39.351-27.952-62.681     c-0.944-23.608,7.403-45.478,23.505-61.58c1.738-1.737,4.095-2.714,6.552-2.714c2.458,0,4.814,0.977,6.553,2.714L419.81,282.209     c6.5,6.501,10.08,15.145,10.08,24.338s-3.58,17.836-10.08,24.337C413.308,337.384,404.664,340.965,395.472,340.965z      M295.938,229.479l88.3,88.301c3,3,6.99,4.653,11.233,4.653s8.232-1.653,11.233-4.653c3-3,4.652-6.989,4.652-11.232     c0-4.244-1.652-8.232-4.653-11.232L209.226,97.836c-8.409,11.442-12.64,25.582-12.035,40.686     c0.746,18.66,8.75,36.53,22.538,50.317c14.354,14.355,33.707,22.588,53.098,22.589c0.001,0,0.003,0,0.005,0     c6.642,0,13.143-0.952,19.321-2.83c4.067-1.232,8.454,0.455,10.642,4.101c2.186,3.646,1.611,8.312-1.395,11.318L295.938,229.479z     "></path></g><g><path d="M256,473.761c-58.166,0-112.851-22.651-153.98-63.781C60.891,368.851,38.24,314.166,38.24,256     s22.651-112.851,63.78-153.981c41.129-41.129,95.814-63.78,153.98-63.78s112.851,22.651,153.979,63.78     c41.13,41.13,63.781,95.815,63.781,153.981s-22.651,112.851-63.781,153.979C368.851,451.109,314.166,473.761,256,473.761z      M256,56.772c-53.216,0-103.246,20.724-140.875,58.353C77.496,152.753,56.772,202.784,56.772,256s20.723,103.246,58.353,140.875     c37.629,37.629,87.659,58.353,140.875,58.353s103.246-20.724,140.875-58.353S455.228,309.216,455.228,256     s-20.724-103.247-58.353-140.875S309.216,56.772,256,56.772z"></path></g><g><path d="M225.223,424.497c-0.581,0-1.169-0.055-1.761-0.168c-33.673-6.479-64.337-22.77-88.68-47.11     c-3.619-3.618-3.619-9.486,0-13.104c3.619-3.618,9.485-3.618,13.104,0c21.712,21.711,49.056,36.24,79.077,42.015     c5.025,0.968,8.316,5.825,7.349,10.852C233.459,421.414,229.577,424.497,225.223,424.497z"></path></g><g><path d="M411.945,220.708c-4.036,0-7.748-2.657-8.908-6.731c-7.074-24.847-20.534-47.702-38.923-66.091     c-28.466-28.464-66.307-44.366-106.552-44.774c-5.117-0.052-9.224-4.243-9.171-9.36c0.051-5.085,4.19-9.172,9.264-9.172     c0.031,0,0.063,0,0.096,0c45.124,0.458,87.552,18.286,119.468,50.201c20.614,20.615,35.706,46.246,43.644,74.12     c1.401,4.922-1.452,10.048-6.375,11.45C413.64,220.593,412.785,220.708,411.945,220.708z"></path></g></g></g></svg>