<svg xmlns="http://www.w3.org/2000/svg" xmlns:xlink="http://www.w3.org/1999/xlink" viewBox="0 0 232.37 93.19"><defs><style>.cls-1{fill:none;}.cls-2{isolation:isolate;}.cls-3{clip-path:url(#clip-path);}.cls-4{fill:url(#linear-gradient);}.cls-5{clip-path:url(#clip-path-2);}.cls-6{opacity:0.3;mix-blend-mode:multiply;}.cls-7{clip-path:url(#clip-path-3);}.cls-8{fill:#005d98;}.cls-9{clip-path:url(#clip-path-5);}.cls-10{fill:url(#linear-gradient-2);}.cls-11{clip-path:url(#clip-path-6);}.cls-12{fill:url(#linear-gradient-3);}.cls-13{fill:#336;}</style><clipPath id="clip-path"><path class="cls-1" d="M52.17,29l-.23.25-.52.57-.52.59c-.07.08-.14.15-.2.23l-.19.21-.58.67-.19.23-.09.1-.33.38-.07.09-.09.11a16.51,16.51,0,0,0-1.77,2.91,6,6,0,0,0-.27.68,5.3,5.3,0,0,0-.28,1.15,4,4,0,0,0,0,.47A2.39,2.39,0,0,0,48,39.84l.23.11.07,0,.11,0,.08.05c.61.31,1.23.6,1.88.91l.76.37h0a9.72,9.72,0,0,1,1.43-2.66l.12-.16a15.51,15.51,0,0,1,1-1.22c.11-.13.22-.26.34-.38l.37-.39c.33-.33.68-.68,1.07-1l.24-.21c.24-.22.49-.44.76-.66l.27-.22.41-.33.33-.25c.34-.27.7-.53,1.08-.8l.34-.24q.68-.48,1.44-1l.39-.25c.65-.41,1.35-.82,2.09-1.24L61.53,31l-1.29.66a22.66,22.66,0,0,1-3.85,1.77c-3.63,1.08-5.43.63-6.06.12a1.11,1.11,0,0,1-.41-.9,1.82,1.82,0,0,1,.09-.53,2.23,2.23,0,0,1,.09-.23l.09-.14c.41-.57.84-1.14,1.27-1.7l1.3-1.67c-.15.15-.36.36-.59.61"/></clipPath><linearGradient id="linear-gradient" x1="-59.48" y1="242.15" x2="-58.48" y2="242.15" gradientTransform="matrix(15.97, 0, 0, -15.97, 996.85, 3902.81)" gradientUnits="userSpaceOnUse"><stop offset="0" stop-color="#29306d"/><stop offset="0.02" stop-color="#29306d"/><stop offset="0.13" stop-color="#283677"/><stop offset="0.45" stop-color="#25428e"/><stop offset="0.74" stop-color="#244a9c"/><stop offset="1" stop-color="#234da1"/></linearGradient><clipPath id="clip-path-2"><path class="cls-1" d="M52.17,29l-.23.25-.52.57-.52.59c-.07.08-.14.15-.2.23l-.19.21-.58.67-.19.23-.09.1-.33.38-.07.09-.09.11a16.51,16.51,0,0,0-1.77,2.91,6,6,0,0,0-.27.68,5.3,5.3,0,0,0-.28,1.15A2.51,2.51,0,0,0,48,39.84l.23.11.07,0,.11,0,.08.05c.61.31,1.23.6,1.88.91l.76.37h0a9.72,9.72,0,0,1,1.43-2.66l.12-.16a15.51,15.51,0,0,1,1-1.22c.11-.13.22-.26.34-.38l.37-.39c.33-.33.68-.68,1.07-1l.24-.21c.24-.22.49-.44.76-.66l.27-.22.41-.33.33-.25c.34-.27.7-.53,1.08-.8l.34-.24q.68-.48,1.44-1l.39-.25c.65-.41,1.35-.82,2.09-1.24L61.53,31l-1.29.66a22.66,22.66,0,0,1-3.85,1.77c-3.63,1.08-5.43.63-6.06.12A1.27,1.27,0,0,1,50,32.14a2.23,2.23,0,0,1,.09-.23l.09-.14c.41-.57.84-1.14,1.27-1.7l1.3-1.67c-.15.15-.36.36-.59.61"/></clipPath><clipPath id="clip-path-3"><rect class="cls-1" x="42.93" y="7.96" width="22.17" height="32.25"/></clipPath><clipPath id="clip-path-5"><path class="cls-1" d="M62,30.77c-9.11,5.14-11,10.61-11,10.61A7.68,7.68,0,0,0,51.11,47a9.66,9.66,0,0,0,3.4,3.69A21.18,21.18,0,0,1,60,43.25a25.73,25.73,0,0,0,4-4.63c2.07-3.28,1.2-5.95-1.34-8.25-.26.14-.51.28-.76.4"/></clipPath><linearGradient id="linear-gradient-2" x1="-59.48" y1="242.17" x2="-58.48" y2="242.17" gradientTransform="matrix(0, -13.73, -13.73, 0, 3383.37, -769.01)" gradientUnits="userSpaceOnUse"><stop offset="0" stop-color="#0c4f8e"/><stop offset="0.02" stop-color="#0c4f8e"/><stop offset="0.08" stop-color="#085191"/><stop offset="0.27" stop-color="#005696"/><stop offset="0.61" stop-color="#1383c1"/><stop offset="0.76" stop-color="#1d9ad6"/><stop offset="0.81" stop-color="#2aa0d8"/><stop offset="0.9" stop-color="#4baede"/><stop offset="1" stop-color="#77c2e6"/></linearGradient><clipPath id="clip-path-6"><path class="cls-1" d="M42.79,25.68c-4.51,5.09.48,12,5.38,14.27h0c-2.77-2.05,1.5-7.82,4.58-11.55,1.73-2.4,3.79-5.27,4.72-7.9,0-.11.05-.11.05-.11a8.76,8.76,0,0,0-.2-6.22A10.49,10.49,0,0,0,53.78,10c-2.45,6-6.9,10.78-11,15.7"/></clipPath><linearGradient id="linear-gradient-3" x1="-59.48" y1="242.06" x2="-58.48" y2="242.06" gradientTransform="matrix(0, 17.23, 17.23, 0, -4122.34, 1043.06)" gradientUnits="userSpaceOnUse"><stop offset="0" stop-color="#76c2e6"/><stop offset="0" stop-color="#76c2e6"/><stop offset="0.29" stop-color="#1d9ad6"/><stop offset="0.42" stop-color="#1588c5"/><stop offset="0.67" stop-color="#015998"/><stop offset="0.68" stop-color="#005696"/><stop offset="0.87" stop-color="#1a4592"/><stop offset="0.98" stop-color="#243e90"/><stop offset="1" stop-color="#243e90"/></linearGradient></defs><title>Asset 13</title><g class="cls-2"><g id="Layer_2" data-name="Layer 2"><g id="Layer_6" data-name="Layer 6"><g class="cls-3"><rect class="cls-4" x="46.8" y="28.4" width="15.98" height="12.97"/></g><g class="cls-5"><g class="cls-6"><g class="cls-7"><g class="cls-7"><path class="cls-8" d="M64.08,12.06C63.43,10.73,62.6,9.49,61.7,8c-.34.64-1.42,3.5-1.92,4.65-1.71,3.88-4.87,6.47-8.09,9-1.94,1.5-4,2.81-6,4.3a6.25,6.25,0,0,0-2.79,5.06c.18,3.92,2.49,6.74,5.39,9.11l-.12-.12.12.12.19.16c-.67-.88-1.33-3.18,2.88-6.92l0,0,.72-.67s2.12-1.86,3.2-2.78a60.82,60.82,0,0,0,5.84-5.38c3.15-3.45,5.28-7.5,2.89-12.38"/></g></g></g></g><g class="cls-9"><rect class="cls-10" x="45.86" y="27.67" width="24.21" height="25.74" transform="translate(-12.42 33.55) rotate(-29.3)"/></g><g class="cls-11"><rect class="cls-12" x="30.61" y="7.31" width="35.31" height="35.31" transform="translate(-3.52 41.44) rotate(-45)"/></g><path class="cls-13" d="M221.38,64.76h-2.45v8.89h2.45c2.11,0,3.79-1.64,3.79-4.57s-1.68-4.32-3.79-4.32m.86,15.13h-3.31V92.28h-7.54v-34H222c4.85,0,10.42,2.54,10.42,10.66,0,7.59-5.09,11-10.13,11M193.67,64.81c-3.51,0-5.19,4.47-5.19,10.37s1.68,10.47,5.19,10.47,5.18-4.56,5.18-10.47-1.73-10.37-5.18-10.37m0,28.38c-8.07,0-13.06-7.2-13.06-18s4.89-17.81,13.06-17.81,13.06,7.06,13.06,17.81-5,18-13.06,18M173.36,64.81V92.28h-7.55V64.81h-6.24V58.28h20v6.53ZM141.13,92.28v-34h16.43v6.77h-9.08v6.67h8.36v6.34h-8.36v7.35h9.65v6.87Zm-20.31,0v-34h7.78V85.17h9.07v7.11ZM102.14,65h-1.87V85.55h1.87c3.7,0,6.29-3.6,6.29-10.18,0-6.81-2.59-10.37-6.29-10.37M102,92.28H92.49v-34H102c9.75,0,14.12,6.63,14.12,17.09,0,10.28-4.42,16.91-14.12,16.91m-23.81,0-7.88-20.7H70.2l.2,20.7H63.53v-34H72l7.83,21H80l-.14-21h6.63v34Zm-28.48-34h7.73v34H49.75ZM34.67,64.76H32.22v8.89h2.45c2.11,0,3.8-1.64,3.8-4.57s-1.69-4.32-3.8-4.32m.86,15.13H32.22V92.28H24.68v-34H35.25c4.85,0,10.42,2.54,10.42,10.66,0,7.59-5.09,11-10.14,11M16.62,66.44a5.93,5.93,0,0,0-4.42-2.11,3.18,3.18,0,0,0-3.36,3.5c0,2.12,1.44,3,4.17,4.42,3.12,1.54,7.21,4,7.21,9.9,0,7.34-5,11-10.57,11A13.85,13.85,0,0,1,0,89.35l3.94-5.76a7.83,7.83,0,0,0,5.47,2.54,3.22,3.22,0,0,0,3.31-3.46c0-2.21-1.58-3.31-4.51-4.75-3.7-1.83-6.77-4.13-6.77-9.8,0-7.54,5.52-10.75,10.47-10.75a11.59,11.59,0,0,1,8.69,3.41Z"/></g></g></g></svg>