<svg xmlns="http://www.w3.org/2000/svg" xmlns:xlink="http://www.w3.org/1999/xlink" viewBox="0 0 307.77 355.39"><defs><style>.cls-1{fill:none;}.cls-2{isolation:isolate;}.cls-3{clip-path:url(#clip-path);}.cls-4{fill:url(#linear-gradient);}.cls-5{clip-path:url(#clip-path-2);}.cls-6{opacity:0.3;mix-blend-mode:multiply;}.cls-7{clip-path:url(#clip-path-3);}.cls-8{fill:#005d98;}.cls-9{clip-path:url(#clip-path-5);}.cls-10{fill:url(#linear-gradient-2);}.cls-11{clip-path:url(#clip-path-6);}.cls-12{fill:url(#linear-gradient-3);}</style><clipPath id="clip-path"><path class="cls-1" d="M168.58,170.56h0c-1,.94-2.29,2.27-3.74,3.82l-1.5,1.62c-1,1.12-2.12,2.32-3.22,3.55s-2.23,2.5-3.33,3.76l-1.26,1.43-1.18,1.34-3.65,4.22-1.25,1.44c-.19.23-.37.45-.56.65l-2,2.4-.45.55c-.18.24-.38.46-.55.7a98.51,98.51,0,0,0-11.21,18.4c-.67,1.49-1.23,2.9-1.69,4.25a35.37,35.37,0,0,0-1.77,7.28A25.87,25.87,0,0,0,131,229c0,8.18,4.51,12.09,7.22,13.7l1.42.74.45.21.68.33.51.29c3.88,1.95,7.81,3.82,11.87,5.77l4.81,2.31.14.07c.75-2.45,3-8.4,9-16.77.25-.33.49-.67.75-1,1.77-2.39,3.85-5,6.29-7.72.7-.78,1.42-1.58,2.18-2.39s1.54-1.64,2.36-2.47q3.06-3.14,6.73-6.48l1.5-1.35c1.52-1.35,3.13-2.73,4.81-4.13l1.71-1.4c.84-.68,1.7-1.37,2.57-2l2.09-1.63c2.16-1.65,4.43-3.34,6.82-5l2.12-1.5q4.31-3,9.12-6.08c.8-.52,1.62-1,2.44-1.55q6.18-3.88,13.22-7.86c-2.63,1.32-5.25,2.68-7.87,4l-8.14,4.2c-8,4.08-15.8,8.63-24.33,11.16-22.93,6.8-34.27,4-38.29.75a7,7,0,0,1-2.57-5.64,10.67,10.67,0,0,1,.58-3.39c.13-.37.52-1.38.56-1.45a10.32,10.32,0,0,1,.58-.88c2.61-3.6,5.3-7.16,8-10.69s5.47-7,8.23-10.55h0"/></clipPath><linearGradient id="linear-gradient" x1="-270.26" y1="717.28" x2="-269.26" y2="717.28" gradientTransform="matrix(100.83, 0, 0, -100.83, 27381.1, 72533.32)" gradientUnits="userSpaceOnUse"><stop offset="0" stop-color="#29306d"/><stop offset="0.02" stop-color="#29306d"/><stop offset="0.13" stop-color="#283677"/><stop offset="0.45" stop-color="#25428e"/><stop offset="0.74" stop-color="#244a9c"/><stop offset="1" stop-color="#234da1"/></linearGradient><clipPath id="clip-path-2"><path class="cls-1" d="M168.58,170.56h0c-1,.94-2.29,2.27-3.74,3.82l-1.5,1.62c-1,1.12-2.12,2.32-3.22,3.55s-2.23,2.5-3.33,3.76l-1.26,1.43-1.18,1.34-3.65,4.22-1.25,1.44c-.19.23-.37.45-.56.65l-2,2.4-.45.55c-.18.24-.38.46-.55.7a98.51,98.51,0,0,0-11.21,18.4c-.67,1.49-1.23,2.9-1.69,4.25a35.37,35.37,0,0,0-1.77,7.28c-1.28,10.3,4,15,7,16.77l1.42.74.45.21.68.33.51.29c3.88,1.95,7.81,3.82,11.87,5.77l4.81,2.31.14.07c.75-2.45,3-8.4,9-16.77.25-.33.49-.67.75-1,1.77-2.39,3.85-5,6.29-7.72.7-.78,1.42-1.58,2.18-2.39s1.54-1.64,2.36-2.47q3.06-3.14,6.73-6.48l1.5-1.35c1.52-1.35,3.13-2.73,4.81-4.13l1.71-1.4c.84-.68,1.7-1.37,2.57-2l2.09-1.63c2.16-1.65,4.43-3.34,6.82-5l2.12-1.5q4.31-3,9.12-6.08c.8-.52,1.62-1,2.44-1.55q6.18-3.88,13.22-7.86c-2.63,1.32-5.25,2.68-7.87,4l-8.14,4.2c-8,4.08-15.8,8.63-24.33,11.16-22.93,6.8-34.27,4-38.29.75-3.4-2.76-2.68-7-2-9,.13-.37.52-1.38.56-1.45a10.32,10.32,0,0,1,.58-.88c2.61-3.6,5.3-7.16,8-10.69s5.47-7,8.23-10.55"/></clipPath><clipPath id="clip-path-3"><rect class="cls-1" x="106.52" y="41.49" width="139.93" height="203.58"/></clipPath><clipPath id="clip-path-5"><path class="cls-1" d="M226.7,185.5h0c-57.5,32.48-69.4,67-69.4,67-.06.18-7.52,19.44.84,35.62a60.94,60.94,0,0,0,21.43,23.26c7.27-18.79,20.48-33.23,34.84-47.08,9.29-9,18.69-18.4,25.51-29.22,13.06-20.69,7.58-37.57-8.41-52.07-1.69.89-3.23,1.74-4.81,2.52"/></clipPath><linearGradient id="linear-gradient-2" x1="-270.26" y1="717.3" x2="-269.26" y2="717.3" gradientTransform="matrix(0, -86.68, -86.68, 0, 62376.44, -23133.9)" gradientUnits="userSpaceOnUse"><stop offset="0" stop-color="#0c4f8e"/><stop offset="0.02" stop-color="#0c4f8e"/><stop offset="0.08" stop-color="#085191"/><stop offset="0.27" stop-color="#005696"/><stop offset="0.61" stop-color="#1383c1"/><stop offset="0.76" stop-color="#1d9ad6"/><stop offset="0.81" stop-color="#2aa0d8"/><stop offset="0.9" stop-color="#4baede"/><stop offset="1" stop-color="#77c2e6"/></linearGradient><clipPath id="clip-path-6"><path class="cls-1" d="M105.62,153.41c-7,7.88-10.36,16.44-11,25.08v6.41c1.8,24.43,23.53,48.38,45,58.55l.05,0c-17.47-12.94,9.5-49.41,29-72.92,10.87-15.19,23.9-33.3,29.77-49.87,0-.69.32-.69.32-.69,3.83-13.57,4.47-26.43-1.28-39.3C192.28,69.57,184.6,61.22,175,54.27c-15.5,38-43.57,68-69.4,99.14"/></clipPath><linearGradient id="linear-gradient-3" x1="-270.26" y1="717.24" x2="-269.26" y2="717.24" gradientTransform="matrix(0, 108.76, 108.76, 0, -77858.92, 29494.57)" gradientUnits="userSpaceOnUse"><stop offset="0" stop-color="#76c2e6"/><stop offset="0" stop-color="#76c2e6"/><stop offset="0.29" stop-color="#1d9ad6"/><stop offset="0.42" stop-color="#1588c5"/><stop offset="0.67" stop-color="#015998"/><stop offset="0.68" stop-color="#005696"/><stop offset="0.87" stop-color="#1a4592"/><stop offset="0.98" stop-color="#243e90"/><stop offset="1" stop-color="#243e90"/></linearGradient></defs><title>Asset 29</title><g class="cls-2"><g id="Layer_2" data-name="Layer 2"><g id="Layer_9" data-name="Layer 9"><g class="cls-3"><rect class="cls-4" x="130.98" y="170.56" width="100.83" height="81.9"/></g><g class="cls-5"><g class="cls-6"><g class="cls-7"><g class="cls-7"><path class="cls-8" d="M240,67.38c-4.09-8.37-9.34-16.18-15-25.89-2.1,4.06-8.92,22.15-12.12,29.41-10.75,24.45-30.7,40.82-51.06,56.59-12.21,9.46-25.32,17.75-37.57,27.16-10.36,8-18.23,19.11-17.65,31.92,1.12,24.73,15.7,42.52,34,57.5q-.36-.33-.75-.75.39.42.75.75l1.24,1c-4.25-5.55-8.41-20,18.19-43.67l.16-.13,4.55-4.23s13.4-11.75,20.21-17.51c12.82-10.84,25.64-21.67,36.86-34,19.9-21.8,33.3-47.37,18.21-78.19"/></g></g></g></g><g class="cls-9"><rect class="cls-10" x="124.97" y="165.94" width="152.82" height="162.45" transform="translate(-95.19 130.17) rotate(-29.3)"/></g><g class="cls-11"><rect class="cls-12" x="43.6" y="43.6" width="210.54" height="210.54" transform="translate(-61.67 148.87) rotate(-45)"/></g></g></g></g></svg>