<?xml version="1.0" encoding="UTF-8" standalone="no"?>
<svg
   xmlns:dc="http://purl.org/dc/elements/1.1/"
   xmlns:cc="http://creativecommons.org/ns#"
   xmlns:rdf="http://www.w3.org/1999/02/22-rdf-syntax-ns#"
   xmlns:svg="http://www.w3.org/2000/svg"
   xmlns="http://www.w3.org/2000/svg"
   xmlns:sodipodi="http://sodipodi.sourceforge.net/DTD/sodipodi-0.dtd"
   xmlns:inkscape="http://www.inkscape.org/namespaces/inkscape"
   height="300px"
   width="300px"
   fill="#000000"
   version="1.1"
   x="0px"
   y="0px"
   viewBox="0 0 512 512"
   style="enable-background:new 0 0 512 512;"
   xml:space="preserve"
   id="svg162"
   sodipodi:docname="otl.svg"
   inkscape:version="1.0.1 (3bc2e813f5, 2020-09-07)"><metadata
     id="metadata168"><rdf:RDF><cc:Work
         rdf:about=""><dc:format>image/svg+xml</dc:format><dc:type
           rdf:resource="http://purl.org/dc/dcmitype/StillImage" /><dc:title></dc:title></cc:Work></rdf:RDF></metadata><defs
     id="defs166" /><sodipodi:namedview
     pagecolor="#ffffff"
     bordercolor="#666666"
     borderopacity="1"
     objecttolerance="10"
     gridtolerance="10"
     guidetolerance="10"
     inkscape:pageopacity="0"
     inkscape:pageshadow="2"
     inkscape:window-width="1920"
     inkscape:window-height="1027"
     id="namedview164"
     showgrid="false"
     inkscape:zoom="1"
     inkscape:cx="122.5"
     inkscape:cy="150"
     inkscape:window-x="1912"
     inkscape:window-y="-8"
     inkscape:window-maximized="1"
     inkscape:current-layer="svg162" /><g
     id="g132"><path
       d="m 218.246,336.691 c -3.902,0 -7.57,-1.521 -10.329,-4.28 l -92.48,-92.48 c -6.126,-6.126 -9.5,-14.271 -9.5,-22.934 0,-8.664 3.374,-16.808 9.5,-22.933 6.126,-6.125 14.27,-9.499 22.933,-9.499 8.663,0 16.807,3.374 22.933,9.499 l 92.481,92.482 c 5.693,5.693 5.694,14.959 0.001,20.653 l -25.213,25.212 c -2.756,2.76 -6.424,4.28 -10.326,4.28 z M 138.37,203.098 c -3.713,0 -7.203,1.446 -9.829,4.071 -2.625,2.625 -4.071,6.116 -4.071,9.828 0,3.713 1.446,7.204 4.071,9.829 l 89.705,89.705 19.657,-19.657 -89.705,-89.705 c -2.625,-2.625 -6.115,-4.071 -9.828,-4.071 z"
       id="path130" /></g><g
     id="g136"><path
       d="m 330.26,416.594 c -2.372,0 -4.742,-0.904 -6.553,-2.714 l -94.853,-94.852 c -3.619,-3.619 -3.619,-9.486 0,-13.105 3.619,-3.618 9.486,-3.618 13.105,0 l 94.854,94.853 c 3.618,3.618 3.618,9.486 0,13.104 -1.81,1.809 -4.181,2.714 -6.553,2.714 z"
       id="path134" /></g><g
     id="g140"><path
       d="m 306.546,440.308 c -2.371,0 -4.742,-0.905 -6.552,-2.714 l -47.385,-47.385 c -12.582,-12.583 -13.963,-31.675 -3.08,-42.559 l 19.493,-19.493 c 10.886,-10.883 29.974,-9.501 42.558,3.08 l 47.386,47.385 c 3.619,3.619 3.619,9.486 0,13.105 -3.62,3.618 -9.485,3.618 -13.105,0 l -47.385,-47.386 c -5.265,-5.266 -12.753,-6.675 -16.348,-3.079 l -19.493,19.493 c -3.596,3.596 -2.187,11.082 3.08,16.349 l 47.384,47.384 c 3.619,3.619 3.619,9.486 0,13.105 -1.81,1.809 -4.181,2.715 -6.553,2.715 z"
       id="path138" /></g><g
     id="g144"><path
       d="m 395.472,340.965 c -9.193,0 -17.837,-3.581 -24.338,-10.081 l -94.853,-94.853 c -1.688,-1.688 -2.588,-3.864 -2.701,-6.074 -0.253,0.002 -0.512,-0.019 -0.755,0.003 -24.269,-0.001 -48.398,-10.213 -66.201,-28.018 -17.091,-17.091 -27.018,-39.351 -27.952,-62.681 -0.944,-23.608 7.403,-45.478 23.505,-61.58 1.738,-1.737 4.095,-2.714 6.552,-2.714 2.458,0 4.814,0.977 6.553,2.714 L 419.81,282.209 c 6.5,6.501 10.08,15.145 10.08,24.338 0,9.193 -3.58,17.836 -10.08,24.337 -6.502,6.5 -15.146,10.081 -24.338,10.081 z m -99.534,-111.486 88.3,88.301 c 3,3 6.99,4.653 11.233,4.653 4.243,0 8.232,-1.653 11.233,-4.653 3,-3 4.652,-6.989 4.652,-11.232 0,-4.244 -1.652,-8.232 -4.653,-11.232 L 209.226,97.836 c -8.409,11.442 -12.64,25.582 -12.035,40.686 0.746,18.66 8.75,36.53 22.538,50.317 14.354,14.355 33.707,22.588 53.098,22.589 10e-4,0 0.003,0 0.005,0 6.642,0 13.143,-0.952 19.321,-2.83 4.067,-1.232 8.454,0.455 10.642,4.101 2.186,3.646 1.611,8.312 -1.395,11.318 z"
       id="path142" /></g><g
     id="g148"><path
       d="M 256,473.761 C 197.834,473.761 143.149,451.11 102.02,409.98 60.891,368.851 38.24,314.166 38.24,256 c 0,-58.166 22.651,-112.851 63.78,-153.981 41.129,-41.129 95.814,-63.78 153.98,-63.78 58.166,0 112.851,22.651 153.979,63.78 41.13,41.13 63.781,95.815 63.781,153.981 0,58.166 -22.651,112.851 -63.781,153.979 -41.128,41.13 -95.813,63.782 -153.979,63.782 z m 0,-416.989 c -53.216,0 -103.246,20.724 -140.875,58.353 C 77.496,152.753 56.772,202.784 56.772,256 c 0,53.216 20.723,103.246 58.353,140.875 37.629,37.629 87.659,58.353 140.875,58.353 53.216,0 103.246,-20.724 140.875,-58.353 37.629,-37.629 58.353,-87.659 58.353,-140.875 0,-53.216 -20.724,-103.247 -58.353,-140.875 C 359.246,77.497 309.216,56.772 256,56.772 Z"
       id="path146" /></g></svg>
