<?xml version="1.0" encoding="utf-8"?>
<!-- Generator: Adobe Illustrator 24.0.1, SVG Export Plug-In . SVG Version: 6.00 Build 0)  -->
<svg version="1.1" id="Layer_1" xmlns="http://www.w3.org/2000/svg" xmlns:xlink="http://www.w3.org/1999/xlink" x="0px" y="0px"
	 viewBox="0 0 250.7 27" style="enable-background:new 0 0 250.7 27;" xml:space="preserve">
<style type="text/css">
	.st0{clip-path:url(#SVGID_2_);}
	.st1{fill:url(#SVGID_3_);}
	.st2{clip-path:url(#SVGID_5_);}
	.st3{opacity:0.3;}
	.st4{clip-path:url(#SVGID_7_);}
	.st5{clip-path:url(#SVGID_9_);}
	.st6{fill:#005D98;}
	.st7{clip-path:url(#SVGID_11_);}
	.st8{fill:url(#SVGID_12_);}
	.st9{clip-path:url(#SVGID_14_);}
	.st10{fill:url(#SVGID_15_);}
	.st11{fill:#F0F0F0;}
</style>
<title>Asset 13</title>
<g>
	<g id="Layer_2_1_">
		<g id="Layer_6">
			<g>
				<defs>
					<path id="SVGID_1_" d="M71.1,12.9L71,13l-0.2,0.3l-0.2,0.3c0,0-0.1,0.1-0.1,0.1l-0.1,0.1L70.1,14L70,14.1l0,0l-0.1,0.2l0,0l0,0
						c-0.3,0.4-0.6,0.8-0.8,1.3c0,0.1-0.1,0.2-0.1,0.3c-0.1,0.2-0.1,0.3-0.1,0.5c0,0.1,0,0.1,0,0.2c0,0.4,0.2,0.8,0.5,1l0.1,0h0h0
						l0,0c0.3,0.1,0.5,0.3,0.8,0.4l0.3,0.2l0,0c0.1-0.4,0.4-0.8,0.6-1.2l0.1-0.1c0.1-0.2,0.3-0.4,0.4-0.5c0-0.1,0.1-0.1,0.2-0.2
						l0.2-0.2c0.1-0.1,0.3-0.3,0.5-0.4l0.1-0.1c0.1-0.1,0.2-0.2,0.3-0.3l0.1-0.1l0.2-0.1l0.1-0.1c0.2-0.1,0.3-0.2,0.5-0.4l0.2-0.1
						c0.2-0.1,0.4-0.3,0.6-0.4l0.2-0.1c0.3-0.2,0.6-0.4,0.9-0.6l-0.6,0.3l-0.6,0.3c-0.5,0.3-1.1,0.6-1.7,0.8
						c-1.6,0.5-2.4,0.3-2.7,0.1c-0.1-0.1-0.2-0.2-0.2-0.4c0-0.1,0-0.2,0-0.2c0,0,0-0.1,0-0.1l0-0.1c0.2-0.3,0.4-0.5,0.6-0.8l0.6-0.7
						C71.3,12.7,71.2,12.8,71.1,12.9"/>
				</defs>
				<clipPath id="SVGID_2_">
					<use xlink:href="#SVGID_1_"  style="overflow:visible;"/>
				</clipPath>
				<g class="st0">
					
						<linearGradient id="SVGID_3_" gradientUnits="userSpaceOnUse" x1="-235.2811" y1="214.6556" x2="-234.836" y2="214.6556" gradientTransform="matrix(15.97 0 0 15.97 3826.1799 -3412.5303)">
						<stop  offset="0" style="stop-color:#29306D"/>
						<stop  offset="2.000000e-02" style="stop-color:#29306D"/>
						<stop  offset="0.13" style="stop-color:#283677"/>
						<stop  offset="0.45" style="stop-color:#25428E"/>
						<stop  offset="0.74" style="stop-color:#244A9C"/>
						<stop  offset="1" style="stop-color:#234DA1"/>
					</linearGradient>
					<rect x="68.7" y="12.6" class="st1" width="7.1" height="5.8"/>
				</g>
			</g>
			<g>
				<defs>
					<path id="SVGID_4_" d="M71.1,12.9L71,13l-0.2,0.3l-0.2,0.3c0,0-0.1,0.1-0.1,0.1l-0.1,0.1L70.1,14L70,14.1l0,0l-0.1,0.2l0,0l0,0
						c-0.3,0.4-0.6,0.8-0.8,1.3c0,0.1-0.1,0.2-0.1,0.3c-0.1,0.2-0.1,0.3-0.1,0.5c-0.1,0.5,0.1,0.9,0.5,1.2l0.1,0h0h0l0,0
						c0.3,0.1,0.5,0.3,0.8,0.4l0.3,0.2l0,0c0.1-0.4,0.4-0.8,0.6-1.2l0.1-0.1c0.1-0.2,0.3-0.4,0.4-0.5c0-0.1,0.1-0.1,0.2-0.2l0.2-0.2
						c0.1-0.1,0.3-0.3,0.5-0.4l0.1-0.1c0.1-0.1,0.2-0.2,0.3-0.3l0.1-0.1l0.2-0.1l0.1-0.1c0.2-0.1,0.3-0.2,0.5-0.4l0.2-0.1
						c0.2-0.1,0.4-0.3,0.6-0.4l0.2-0.1c0.3-0.2,0.6-0.4,0.9-0.6l-0.6,0.3l-0.6,0.3c-0.5,0.3-1.1,0.6-1.7,0.8
						c-1.6,0.5-2.4,0.3-2.7,0.1c-0.2-0.2-0.2-0.4-0.1-0.6c0,0,0-0.1,0-0.1l0-0.1c0.2-0.3,0.4-0.5,0.6-0.8l0.6-0.7
						C71.3,12.7,71.2,12.8,71.1,12.9"/>
				</defs>
				<clipPath id="SVGID_5_">
					<use xlink:href="#SVGID_4_"  style="overflow:visible;"/>
				</clipPath>
				<g class="st2">
					<g class="st3">
						<g>
							<defs>
								<rect id="SVGID_6_" x="67" y="3.5" width="9.9" height="14.3"/>
							</defs>
							<clipPath id="SVGID_7_">
								<use xlink:href="#SVGID_6_"  style="overflow:visible;"/>
							</clipPath>
							<g class="st4">
								<g>
									<defs>
										<rect id="SVGID_8_" x="67" y="3.5" width="9.9" height="14.3"/>
									</defs>
									<clipPath id="SVGID_9_">
										<use xlink:href="#SVGID_8_"  style="overflow:visible;"/>
									</clipPath>
									<g class="st5">
										<path class="st6" d="M76.4,5.4c-0.3-0.6-0.7-1.1-1.1-1.8c-0.2,0.3-0.6,1.6-0.9,2.1c-0.8,1.7-2.2,2.9-3.6,4
											c-0.9,0.7-1.8,1.2-2.7,1.9c-0.8,0.5-1.2,1.3-1.2,2.3c0.1,1.7,1.1,3,2.4,4.1l-0.1-0.1l0.1,0.1l0.1,0.1
											c-0.3-0.4-0.6-1.4,1.3-3.1l0,0l0.3-0.3c0,0,0.9-0.8,1.4-1.2c0.9-0.7,1.8-1.5,2.6-2.4C76.4,9.4,77.4,7.6,76.4,5.4"/>
									</g>
								</g>
							</g>
						</g>
					</g>
				</g>
			</g>
			<g>
				<defs>
					<path id="SVGID_10_" d="M75.4,13.7c-4.1,2.3-4.9,4.7-4.9,4.7c-0.3,0.8-0.3,1.7,0,2.5c0.4,0.7,0.9,1.2,1.5,1.6
						c0.6-1.3,1.4-2.4,2.4-3.3c0.7-0.6,1.3-1.3,1.8-2.1c0.9-1.5,0.5-2.6-0.6-3.7C75.6,13.6,75.5,13.6,75.4,13.7"/>
				</defs>
				<clipPath id="SVGID_11_">
					<use xlink:href="#SVGID_10_"  style="overflow:visible;"/>
				</clipPath>
				<g class="st7">
					
						<linearGradient id="SVGID_12_" gradientUnits="userSpaceOnUse" x1="-276.6851" y1="194.6653" x2="-276.2403" y2="194.6653" gradientTransform="matrix(-6.7192 -11.9735 11.9735 -6.7192 -4114.7471 -1984.1012)">
						<stop  offset="0" style="stop-color:#0C4F8E"/>
						<stop  offset="2.000000e-02" style="stop-color:#0C4F8E"/>
						<stop  offset="8.000000e-02" style="stop-color:#085191"/>
						<stop  offset="0.27" style="stop-color:#005696"/>
						<stop  offset="0.61" style="stop-color:#1383C1"/>
						<stop  offset="0.76" style="stop-color:#1D9AD6"/>
						<stop  offset="0.81" style="stop-color:#2AA0D8"/>
						<stop  offset="0.9" style="stop-color:#4BAEDE"/>
						<stop  offset="1" style="stop-color:#77C2E6"/>
					</linearGradient>
					<polygon class="st8" points="66.1,15.7 75.5,10.4 81.1,20.4 71.7,25.7 					"/>
				</g>
			</g>
			<g>
				<defs>
					<path id="SVGID_13_" d="M66.9,11.4c-2,2.3,0.2,5.3,2.4,6.3l0,0c-1.2-0.9,0.7-3.5,2-5.1c0.8-1.1,1.7-2.3,2.1-3.5c0,0,0,0,0,0
						c0.3-0.9,0.3-1.9-0.1-2.8c-0.4-0.7-0.9-1.4-1.6-1.9C70.7,7.1,68.7,9.2,66.9,11.4"/>
				</defs>
				<clipPath id="SVGID_14_">
					<use xlink:href="#SVGID_13_"  style="overflow:visible;"/>
				</clipPath>
				<g class="st9">
					
						<linearGradient id="SVGID_15_" gradientUnits="userSpaceOnUse" x1="-225.5908" y1="199.1364" x2="-225.146" y2="199.1364" gradientTransform="matrix(12.1834 12.1834 -12.1834 12.1834 5241.8428 331.2916)">
						<stop  offset="0" style="stop-color:#76C2E6"/>
						<stop  offset="0" style="stop-color:#76C2E6"/>
						<stop  offset="0.29" style="stop-color:#1D9AD6"/>
						<stop  offset="0.42" style="stop-color:#1588C5"/>
						<stop  offset="0.67" style="stop-color:#015998"/>
						<stop  offset="0.68" style="stop-color:#005696"/>
						<stop  offset="0.87" style="stop-color:#1A4592"/>
						<stop  offset="0.98" style="stop-color:#243E90"/>
						<stop  offset="1" style="stop-color:#243E90"/>
					</linearGradient>
					<polygon class="st10" points="58.2,11.1 69.3,0 80.4,11.1 69.3,22.2 					"/>
				</g>
			</g>
			<path class="st11" d="M179.7,8.8h-1.1v4h1.1c0.9,0,1.7-0.7,1.7-2S180.6,8.8,179.7,8.8 M180.1,15.6h-1.5v5.5h-3.4V6h4.7
				c2.2,0,4.6,1.1,4.6,4.7C184.6,14.1,182.3,15.6,180.1,15.6 M167.4,8.9c-1.6,0-2.3,2-2.3,4.6s0.7,4.7,2.3,4.7c1.6,0,2.3-2,2.3-4.7
				S168.9,8.9,167.4,8.9 M167.4,21.5c-3.6,0-5.8-3.2-5.8-8s2.2-7.9,5.8-7.9c3.6,0,5.8,3.1,5.8,7.9S171,21.5,167.4,21.5 M158.3,8.9
				v12.2H155V8.9h-2.8V6h8.9v2.9H158.3z M144,21.1V6h7.3v3h-4v3h3.7v2.8h-3.7V18h4.3v3.1H144z M135,21.1V6h3.5v12h4v3.2H135z
				 M126.7,8.9h-0.8v9.1h0.8c1.6,0,2.8-1.6,2.8-4.5C129.5,10.5,128.3,8.9,126.7,8.9 M126.6,21.1h-4.2V6h4.2c4.3,0,6.3,2.9,6.3,7.6
				C132.9,18.1,130.9,21.1,126.6,21.1 M116,21.1l-3.5-9.2h0l0.1,9.2h-3.1V6h3.8l3.5,9.3h0.1L116.7,6h2.9v15.1H116z M103.3,6h3.4
				v15.1h-3.4L103.3,6z M96.6,8.8h-1.1v4h1.1c0.9,0,1.7-0.7,1.7-2S97.6,8.8,96.6,8.8 M97,15.6h-1.5v5.5h-3.4V6h4.7
				c2.2,0,4.6,1.1,4.6,4.7C101.5,14.1,99.3,15.6,97,15.6 M88.6,9.6c-0.5-0.6-1.2-0.9-2-0.9c-0.8,0-1.5,0.5-1.5,1.3
				c0,0.1,0,0.2,0,0.2c0,0.9,0.6,1.3,1.9,2c1.4,0.7,3.2,1.8,3.2,4.4c0,3.3-2.2,4.9-4.7,4.9c-1.6,0-3.1-0.6-4.3-1.7l1.8-2.6
				c0.6,0.7,1.5,1.1,2.4,1.1c0.8,0,1.5-0.6,1.5-1.4c0-0.1,0-0.1,0-0.2c0-1-0.7-1.5-2-2.1c-1.6-0.8-3-1.8-3-4.4
				c0-3.4,2.5-4.8,4.7-4.8C88,5.5,89.4,6,90.4,7.1L88.6,9.6z"/>
		</g>
	</g>
</g>
</svg>
