<?xml version="1.0" encoding="utf-8"?>
<!-- Generator: Adobe Illustrator 24.0.1, SVG Export Plug-In . SVG Version: 6.00 Build 0)  -->
<svg version="1.1" id="Layer_1" xmlns="http://www.w3.org/2000/svg" xmlns:xlink="http://www.w3.org/1999/xlink" x="0px" y="0px"
	 viewBox="0 0 250.7 48.7" style="enable-background:new 0 0 250.7 48.7;" xml:space="preserve">
<style type="text/css">
	.st0{clip-path:url(#SVGID_2_);}
	.st1{fill:url(#SVGID_3_);}
	.st2{clip-path:url(#SVGID_5_);}
	.st3{opacity:0.3;}
	.st4{clip-path:url(#SVGID_7_);}
	.st5{clip-path:url(#SVGID_9_);}
	.st6{fill:#005D98;}
	.st7{clip-path:url(#SVGID_11_);}
	.st8{fill:url(#SVGID_12_);}
	.st9{clip-path:url(#SVGID_14_);}
	.st10{fill:url(#SVGID_15_);}
	.st11{fill:#FFFFFF;}
</style>
<title>Asset 13</title>
<g>
	<g id="Layer_2_1_">
		<g id="Layer_6">
			<g>
				<defs>
					<path id="SVGID_1_" d="M17,23.2l-0.2,0.2l-0.5,0.5l-0.5,0.5c-0.1,0.1-0.1,0.1-0.2,0.2l-0.2,0.2L15,25.4l-0.2,0.2l-0.1,0.1
						L14.4,26l-0.1,0.1l-0.1,0.1c-0.6,0.8-1.1,1.7-1.6,2.6c-0.1,0.2-0.2,0.4-0.2,0.6c-0.1,0.3-0.2,0.7-0.2,1c0,0.1,0,0.3,0,0.4
						c0,0.8,0.3,1.5,1,2l0.2,0.1h0.1h0.1l0.1,0c0.5,0.3,1.1,0.5,1.7,0.8l0.7,0.3l0,0c0.3-0.8,0.7-1.6,1.3-2.4l0.1-0.1
						c0.3-0.4,0.6-0.7,0.9-1.1c0.1-0.1,0.2-0.2,0.3-0.3l0.3-0.3c0.3-0.3,0.6-0.6,1-0.9l0.2-0.2c0.2-0.2,0.4-0.4,0.7-0.6l0.2-0.2
						l0.4-0.3l0.3-0.2c0.3-0.2,0.6-0.5,1-0.7l0.3-0.2c0.4-0.3,0.8-0.6,1.3-0.9l0.3-0.2c0.6-0.4,1.2-0.7,1.9-1.1l-1.1,0.6l-1.1,0.6
						c-1.1,0.6-2.2,1.2-3.4,1.6c-3.2,1-4.8,0.6-5.4,0.1c-0.2-0.2-0.4-0.5-0.4-0.8c0-0.2,0-0.3,0.1-0.5c0-0.1,0-0.1,0.1-0.2l0.1-0.1
						c0.4-0.5,0.7-1,1.1-1.5l1.2-1.5C17.3,22.8,17.2,22.9,17,23.2"/>
				</defs>
				<clipPath id="SVGID_2_">
					<use xlink:href="#SVGID_1_"  style="overflow:visible;"/>
				</clipPath>
				<g class="st0">
					
						<linearGradient id="SVGID_3_" gradientUnits="userSpaceOnUse" x1="-238.8141" y1="223.185" x2="-237.9254" y2="223.185" gradientTransform="matrix(15.97 0 0 15.97 3826.1799 -3535.8701)">
						<stop  offset="0" style="stop-color:#29306D"/>
						<stop  offset="2.000000e-02" style="stop-color:#29306D"/>
						<stop  offset="0.13" style="stop-color:#283677"/>
						<stop  offset="0.45" style="stop-color:#25428E"/>
						<stop  offset="0.74" style="stop-color:#244A9C"/>
						<stop  offset="1" style="stop-color:#234DA1"/>
					</linearGradient>
					<rect x="12.2" y="22.6" class="st1" width="14.2" height="11.5"/>
				</g>
			</g>
			<g>
				<defs>
					<path id="SVGID_4_" d="M17,23.2l-0.2,0.2l-0.5,0.5l-0.5,0.5c-0.1,0.1-0.1,0.1-0.2,0.2l-0.2,0.2L15,25.4l-0.2,0.2l-0.1,0.1
						L14.4,26l-0.1,0.1l-0.1,0.1c-0.6,0.8-1.1,1.7-1.6,2.6c-0.1,0.2-0.2,0.4-0.2,0.6c-0.1,0.3-0.2,0.7-0.2,1c-0.2,0.9,0.2,1.9,1,2.4
						l0.2,0.1h0.1h0.1l0.1,0c0.5,0.3,1.1,0.5,1.7,0.8l0.7,0.3l0,0c0.3-0.8,0.7-1.6,1.3-2.4l0.1-0.1c0.3-0.4,0.6-0.7,0.9-1.1
						c0.1-0.1,0.2-0.2,0.3-0.3l0.3-0.3c0.3-0.3,0.6-0.6,1-0.9l0.2-0.2c0.2-0.2,0.4-0.4,0.7-0.6l0.2-0.2l0.4-0.3l0.3-0.2
						c0.3-0.2,0.6-0.5,1-0.7l0.3-0.2c0.4-0.3,0.8-0.6,1.3-0.9l0.3-0.2c0.6-0.4,1.2-0.7,1.9-1.1l-1.1,0.6l-1.1,0.6
						c-1.1,0.6-2.2,1.2-3.4,1.6c-3.2,1-4.8,0.6-5.4,0.1C15,26.9,14.9,26.4,15,26c0-0.1,0-0.1,0.1-0.2l0.1-0.1c0.4-0.5,0.7-1,1.1-1.5
						l1.2-1.5C17.3,22.8,17.1,23,17,23.2"/>
				</defs>
				<clipPath id="SVGID_5_">
					<use xlink:href="#SVGID_4_"  style="overflow:visible;"/>
				</clipPath>
				<g class="st2">
					<g class="st3">
						<g>
							<defs>
								<rect id="SVGID_6_" x="8.7" y="4.5" width="19.7" height="28.6"/>
							</defs>
							<clipPath id="SVGID_7_">
								<use xlink:href="#SVGID_6_"  style="overflow:visible;"/>
							</clipPath>
							<g class="st4">
								<g>
									<defs>
										<rect id="SVGID_8_" x="8.7" y="4.5" width="19.7" height="28.6"/>
									</defs>
									<clipPath id="SVGID_9_">
										<use xlink:href="#SVGID_8_"  style="overflow:visible;"/>
									</clipPath>
									<g class="st5">
										<path class="st6" d="M27.5,8.1c-0.6-1.2-1.3-2.3-2.1-3.6c-0.3,0.6-1.3,3.1-1.7,4.1c-1.5,3.4-4.3,5.7-7.2,8
											c-1.7,1.3-3.6,2.5-5.3,3.8c-1.5,1-2.4,2.7-2.5,4.5c0.2,3.5,2.2,6,4.8,8.1l-0.1-0.1l0.1,0.1l0.2,0.1
											c-0.6-0.8-1.2-2.8,2.6-6.1l0,0l0.6-0.6c0,0,1.9-1.7,2.8-2.5c1.8-1.5,3.6-3.1,5.2-4.8C27.7,16.1,29.6,12.5,27.5,8.1"/>
									</g>
								</g>
							</g>
						</g>
					</g>
				</g>
			</g>
			<g>
				<defs>
					<path id="SVGID_10_" d="M25.7,24.7c-8.1,4.6-9.8,9.4-9.8,9.4c-0.6,1.6-0.6,3.4,0.1,5c0.7,1.3,1.7,2.5,3,3.3
						c1.1-2.5,2.8-4.8,4.9-6.6c1.3-1.2,2.5-2.6,3.6-4.1c1.8-2.9,1.1-5.3-1.2-7.3C26,24.5,25.8,24.6,25.7,24.7"/>
				</defs>
				<clipPath id="SVGID_11_">
					<use xlink:href="#SVGID_10_"  style="overflow:visible;"/>
				</clipPath>
				<g class="st7">
					
						<linearGradient id="SVGID_12_" gradientUnits="userSpaceOnUse" x1="-275.5313" y1="199.3763" x2="-274.6431" y2="199.3763" gradientTransform="matrix(-6.7192 -11.9735 11.9735 -6.7192 -4213.3984 -1920.5016)">
						<stop  offset="0" style="stop-color:#0C4F8E"/>
						<stop  offset="2.000000e-02" style="stop-color:#0C4F8E"/>
						<stop  offset="8.000000e-02" style="stop-color:#085191"/>
						<stop  offset="0.27" style="stop-color:#005696"/>
						<stop  offset="0.61" style="stop-color:#1383C1"/>
						<stop  offset="0.76" style="stop-color:#1D9AD6"/>
						<stop  offset="0.81" style="stop-color:#2AA0D8"/>
						<stop  offset="0.9" style="stop-color:#4BAEDE"/>
						<stop  offset="1" style="stop-color:#77C2E6"/>
					</linearGradient>
					<polygon class="st8" points="7.1,28.7 25.9,18.2 37.1,38.1 18.3,48.6 					"/>
				</g>
			</g>
			<g>
				<defs>
					<path id="SVGID_13_" d="M8.6,20.2c-4,4.5,0.4,10.7,4.8,12.7l0,0c-2.5-1.8,1.3-6.9,4.1-10.3c1.5-2.1,3.4-4.7,4.2-7
						c0-0.1,0-0.1,0-0.1c0.6-1.8,0.6-3.8-0.2-5.5c-0.7-1.5-1.8-2.8-3.1-3.7C16.2,11.6,12.3,15.9,8.6,20.2"/>
				</defs>
				<clipPath id="SVGID_14_">
					<use xlink:href="#SVGID_13_"  style="overflow:visible;"/>
				</clipPath>
				<g class="st9">
					
						<linearGradient id="SVGID_15_" gradientUnits="userSpaceOnUse" x1="-228.0464" y1="209.677" x2="-227.1582" y2="209.677" gradientTransform="matrix(12.1834 12.1834 -12.1834 12.1834 5342.2236 239.1497)">
						<stop  offset="0" style="stop-color:#76C2E6"/>
						<stop  offset="0" style="stop-color:#76C2E6"/>
						<stop  offset="0.29" style="stop-color:#1D9AD6"/>
						<stop  offset="0.42" style="stop-color:#1588C5"/>
						<stop  offset="0.67" style="stop-color:#015998"/>
						<stop  offset="0.68" style="stop-color:#005696"/>
						<stop  offset="0.87" style="stop-color:#1A4592"/>
						<stop  offset="0.98" style="stop-color:#243E90"/>
						<stop  offset="1" style="stop-color:#243E90"/>
					</linearGradient>
					<polygon class="st10" points="-8.7,19.6 13.5,-2.6 35.7,19.6 13.5,41.8 					"/>
				</g>
			</g>
			<path class="st11" d="M233.9,15h-2.2v7.9h2.2c1.9,0,3.4-1.5,3.4-4.1S235.7,15,233.9,15 M234.6,28.5h-2.9v11H225V9.3h9.4
				c4.3,0,9.3,2.3,9.3,9.5C243.7,25.5,239.1,28.5,234.6,28.5 M209.2,15.1c-3.1,0-4.6,4-4.6,9.2s1.5,9.3,4.6,9.3c3.1,0,4.6-4,4.6-9.3
				S212.3,15.1,209.2,15.1 M209.2,40.3c-7.2,0-11.6-6.4-11.6-16S202,8.5,209.2,8.5c7.3,0,11.6,6.3,11.6,15.8S216.4,40.3,209.2,40.3
				 M191.2,15.1v24.4h-6.7V15.1H179V9.3h17.8v5.8H191.2z M162.6,39.5V9.3h14.6v6h-8.1v5.9h7.4v5.6h-7.4v6.5h8.6v6.1H162.6z
				 M144.5,39.5V9.3h6.9v23.9h8.1v6.3H144.5z M128,15.3h-1.7v18.3h1.7c3.3,0,5.6-3.2,5.6-9C133.5,18.4,131.2,15.3,128,15.3
				 M127.8,39.5h-8.4V9.3h8.4c8.7,0,12.5,5.9,12.5,15.2C140.4,33.6,136.4,39.5,127.8,39.5 M106.7,39.5l-7-18.4h-0.1l0.2,18.4h-6.1
				V9.3h7.5l7,18.7h0.2l-0.1-18.7h5.9v30.2H106.7z M81.4,9.3h6.9v30.2h-6.8L81.4,9.3z M68,15h-2.2v7.9H68c1.9,0,3.4-1.5,3.4-4.1
				S69.9,15,68,15 M68.8,28.5h-2.9v11h-6.7V9.3h9.4c4.3,0,9.3,2.3,9.3,9.5C77.8,25.5,73.3,28.5,68.8,28.5 M52,16.5
				c-1-1.2-2.4-1.8-3.9-1.9c-1.6-0.1-2.9,1.1-3,2.6c0,0.2,0,0.3,0,0.5c0,1.9,1.3,2.7,3.7,3.9c2.8,1.4,6.4,3.6,6.4,8.8
				c0,6.5-4.4,9.8-9.4,9.8c-3.2,0-6.3-1.2-8.6-3.4l3.5-5.1c1.3,1.4,3,2.2,4.9,2.3c1.6,0,2.9-1.2,2.9-2.8c0-0.1,0-0.2,0-0.3
				c0-2-1.4-2.9-4-4.2c-3.3-1.6-6-3.7-6-8.7c0-6.7,4.9-9.5,9.3-9.5c2.9-0.1,5.7,1,7.7,3L52,16.5z"/>
		</g>
	</g>
</g>
</svg>
