<svg xmlns="http://www.w3.org/2000/svg" xmlns:xlink="http://www.w3.org/1999/xlink" viewBox="0 0 232.37 33.8"><defs><style>.cls-1{fill:none;}.cls-2{clip-path:url(#clip-path);}.cls-3{fill:url(#radial-gradient);}</style><clipPath id="clip-path"><path class="cls-1" d="M32.22,7h2.45c2.11,0,3.8,1.22,3.8,4.07s-1.69,4.31-3.8,4.31H32.22ZM24.68.86V32.94h7.54V21.25h3.32c5,0,10.13-3.17,10.13-10.33C45.67,3.26,40.1.86,35.25.86ZM49.75,32.94h7.73V.86H49.75ZM79.81.86,80,20.66h-.14L72,.86H63.53V32.94H70.4l-.19-19.53h.14l7.88,19.53h8.21V.86ZM100.27,7.2h1.87c3.7,0,6.29,3.36,6.29,9.79,0,6.21-2.59,9.6-6.29,9.6h-1.87ZM92.49.86V32.94H102c9.7,0,14.12-6.26,14.12-15.95C116.16,7.11,111.79.86,102,.86Zm28.33,0V32.94h16.86V26.23H128.6V.86Zm20.31,0V32.94h17V26.46h-9.65V19.53h8.36v-6h-8.36V7.25h9.08V.86Zm18.44,0V7h6.25V32.94h7.54V7h6.24V.86ZM218.93,7h2.45c2.11,0,3.79,1.22,3.79,4.07s-1.68,4.31-3.79,4.31h-2.45ZM211.39.86V32.94h7.54V21.25h3.31c5,0,10.13-3.17,10.13-10.33C232.37,3.26,226.8.86,222,.86ZM1.44,10.15c0,5.34,3.07,7.52,6.77,9.24,2.93,1.36,4.52,2.4,4.52,4.49a3.13,3.13,0,0,1-3.32,3.26,8,8,0,0,1-5.47-2.4L0,30.17A14.27,14.27,0,0,0,9.65,33.8c5.57,0,10.57-3.49,10.57-10.42,0-5.57-4.08-7.89-7.21-9.34-2.73-1.31-4.17-2.17-4.17-4.16A3.1,3.1,0,0,1,12.2,6.57a6,6,0,0,1,4.42,2l4-5.34A12,12,0,0,0,11.91,0C7,0,1.44,3,1.44,10.15m187,6.66c0-5.57,1.68-9.79,5.19-9.79s5.18,4.22,5.18,9.79-1.72,9.87-5.18,9.87-5.19-4.3-5.19-9.87m-7.87,0c0,10.19,5,17,13.06,17s13.06-6.8,13.06-17S201.74,0,193.67,0s-13.06,6.66-13.06,16.81"/></clipPath><radialGradient id="radial-gradient" cx="-340.34" cy="205.16" r="1" gradientTransform="matrix(83.13, 0, 0, -78.43, 28407.6, 16106.9)" gradientUnits="userSpaceOnUse"><stop offset="0" stop-color="#1d9ad6"/><stop offset="0.32" stop-color="#1d9ad6"/><stop offset="0.7" stop-color="#0675bb"/><stop offset="0.99" stop-color="#005b97"/><stop offset="1" stop-color="#005b97"/></radialGradient></defs><title>Asset 14</title><g id="Layer_2" data-name="Layer 2"><g id="Layer_6" data-name="Layer 6"><g class="cls-2"><rect class="cls-3" width="232.37" height="33.8"/></g></g></g></svg>